PathFileType	4	(X/Y/Z)	Patient4_TMGait_0pt4_03_left_37.trc.trc
DataRate	CameraRate	NumFrames	NumMarkers	Units	OrigDataRate	OrigDataStartFrame	OrigNumFrames
75.675675675676	75.675675675676	4	33	mm	75.675675675676	89	       141
Frame#	Time	Sacral			L.Shoulder			Chest			R.Shoulder			Neck			R.ASIS			L.ASIS			R.Thigh.Superior			R.Thigh.Lateral			R.Thigh.Inferior			R.Patella			L.Thigh.Superior			L.Thigh.Lateral			L.Thigh.Inferior			L.Patella			L.Shank.Superior			L.Shank.Lateral			L.Shank.Inferior			R.Shank.Superior			R.Shank.Lateral			R.Shank.Inferior			R.Heel			R.Midfoot.Superior			R.Midfoot.Lateral			R.Toe			L.Heel			L.Midfoot.Lateral			L.Midfoot.Superior			L.Toe			L.Elbow			L.Wrist			R.Elbow			R.Wrist			
		X1	Y1	Z1	X2	Y2	Z2	X3	Y3	Z3	X4	Y4	Z4	X5	Y5	Z5	X6	Y6	Z6	X7	Y7	Z7	X8	Y8	Z8	X9	Y9	Z9	X10	Y10	Z10	X11	Y11	Z11	X12	Y12	Z12	X13	Y13	Z13	X14	Y14	Z14	X15	Y15	Z15	X16	Y16	Z16	X17	Y17	Z17	X18	Y18	Z18	X19	Y19	Z19	X20	Y20	Z20	X21	Y21	Z21	X22	Y22	Z22	X23	Y23	Z23	X24	Y24	Z24	X25	Y25	Z25	X26	Y26	Z26	X27	Y27	Z27	X28	Y28	Z28	X29	Y29	Z29	X30	Y30	Z30	X31	Y31	Z31	X32	Y32	Z32	X33	Y33	Z33	

89	50.212857142857	898.296840219362	999.973391969776	492.107023714614	1055.930580128932	1434.352294831512	307.862472368103	1154.817920020506	1376.030864123921	474.871291197398	1058.099479824925	1443.161105144149	644.533007335184	1024.209234027963	1496.798697888043	463.400890110397	1129.282796110843	947.177439026039	615.742784935735	1120.425510852774	967.307965841179	339.915600065333	1180.473497083457	746.983852707573	583.972527511455	1105.028046518729	634.527071435451	646.448278185104	1184.409317089866	585.037404099844	566.134133973165	1189.370666910732	496.842237476974	573.357421389393	1147.017220756103	741.298820388748	353.168010798076	1048.015692604905	635.239464484654	283.854788524697	1131.453937134598	544.996043594397	332.336619525751	1121.460635237863	463.972460628090	325.966876391744	1059.847216185319	405.855922627229	320.933535514701	923.869061594444	345.688319597336	278.549026123446	931.167072468911	214.410221252973	330.082014443847	1162.349671203739	407.202600444315	581.456885230205	1094.358649698585	303.278926600483	645.569602075141	1135.752942910117	207.843806357543	583.000234934739	1004.534951234348	43.202394597940	560.345647945296	1175.672172468785	97.642229762471	590.732566915308	1089.825545207259	37.607839536675	632.832363536333	1297.548010334892	45.420980972644	615.829234643224	757.170033301584	115.253706347960	377.264165259587	817.060574280518	80.165142265952	294.429054825981	918.094207244536	111.968765688881	309.665093369374	1015.833898266166	34.497897559604	278.437010775426	1074.872550120705	1084.256401473859	185.199012968956	1308.763911633894	969.492905101171	178.808801892444	968.355692196525	1107.740777590178	756.236792094836	1003.617216746023	848.115432689227	756.464226455911	
90	50.226071428571	898.656645668899	1000.183211028180	496.397864394043	1053.947203131959	1434.695189631175	311.181615297472	1154.720038714980	1376.539650542944	477.144920375170	1059.751552165041	1443.443578882455	647.795268713415	1023.788929315694	1497.084065379537	466.981937786982	1130.417122030942	947.376029297208	618.169576089683	1119.559990670043	967.727785646423	342.709900585353	1179.470900192774	746.297680151959	587.076135552234	1102.412557413539	634.459514931098	649.037867120359	1181.524704464851	584.411723254185	568.915834024281	1185.466154587862	496.333794920424	575.752646626812	1152.264544001526	743.639161243747	355.872114751147	1057.383328008312	635.318774440074	285.016620027470	1143.288473049550	546.730744055059	333.651859510488	1134.205359781676	464.519002528857	326.338961291666	1070.545742444596	406.532672193639	321.291663537434	932.562039807364	351.093934711562	278.898840750693	935.721497698019	219.635732987692	329.961194481735	1158.257236790392	406.859238489142	583.483002513320	1089.827246261632	302.900239009128	647.064133118324	1131.023571477867	207.622988440574	583.997589760462	999.266996335315	43.215468722744	560.453841760795	1170.537476327524	97.419981548327	591.179686925910	1084.547225948897	37.544451736404	632.995828015459	1292.352543272434	44.969846980090	616.035668161964	758.028323400928	128.743100201558	376.864472151777	816.132783691581	90.201598421532	294.191484526410	918.772381617629	116.587681889862	309.296898359602	1011.418555867475	33.687638381102	278.571458475138	1071.096164645264	1083.744970525187	190.173713943604	1298.522712932803	955.717305466098	181.212332511901	976.116023788158	1106.476154947750	761.364514826369	1020.583246068797	848.262185748923	761.442433406230	
91	50.239285714286	898.740308821281	1000.259710920389	500.532047815329	1051.830133248572	1434.878746170959	314.404200889414	1154.555083459591	1376.795589476662	479.238255741763	1061.512399627340	1443.506515592324	650.951766654076	1023.408881630796	1497.237640687285	470.497976489038	1131.308895577554	947.449779931603	620.384040613250	1118.211610270740	967.843486562501	345.297962307457	1178.312182681879	745.640492359406	589.918868326662	1099.848880026440	634.379189638402	651.496233410922	1178.635354510832	583.811261486920	571.516834921539	1181.585734201192	495.828576997998	578.053564728083	1157.291996954282	746.162624740510	358.385306265340	1066.766711353615	635.621666945688	286.076694658742	1155.094519644419	548.901416707921	335.004602157975	1147.144314496864	465.581850641414	326.978054566812	1081.663138813801	407.526361095490	321.831491318619	941.928068711071	356.680180643121	279.245412142830	940.949402607845	225.225057363881	330.082320866163	1154.188277165976	406.504709400105	585.433943230682	1085.315911717717	302.528931752189	648.563856211193	1126.293776718917	207.397906583601	584.989456274372	993.960241873025	43.230772709481	560.576420862344	1165.363537511024	97.188965290257	591.596334790590	1079.231290522263	37.479579460664	633.173066237493	1287.119304895641	44.520038144643	616.247051497458	759.858598051125	142.603767600599	376.617363450776	816.164951143708	100.909640723806	294.064808300020	920.195200424580	121.859540179583	309.229085689636	1007.725134903484	33.030181810629	278.788411990821	1067.399643030453	1083.120621730946	195.007926777967	1287.109852561893	941.581727438658	183.695528771115	984.356533579392	1105.102501625816	766.573838372027	1038.310169174012	848.680762348377	766.605255409783	
92	50.252500000000	898.566335691339	1000.227665635698	504.490108460368	1049.628330566648	1434.936558731121	317.500579824157	1154.322868792741	1376.831548271439	481.146626199156	1063.330877281718	1443.381298663189	653.969919857048	1023.074031080562	1497.293030425193	473.903802336934	1131.960374453419	947.440442030682	622.388181612771	1116.443133752447	967.706199450862	347.665139826831	1177.036381704363	745.040649437504	592.450408409762	1097.414931594624	634.295593172680	653.793631691733	1175.796607560234	583.250568397246	573.886996256462	1177.800391978863	495.332632695562	580.212856195418	1161.952040283849	748.894766403252	360.676792594689	1075.904319747511	636.232938997600	287.052469934537	1166.614737871397	551.566345427545	336.317769738901	1160.033088614570	467.225306098532	327.774819028025	1092.984554439199	408.899713856318	322.486642149186	951.751559880917	362.351917747724	279.600804218469	946.815671392013	231.037157263541	330.420592621108	1150.197773890386	406.145212935375	587.270383632772	1080.871637710854	302.184268606967	650.042405616376	1121.591224463601	207.176950678936	585.955602017659	988.631270290511	43.252334289274	560.722120192084	1160.161413723605	96.972946906520	591.985304033950	1073.893973990590	37.419600048594	633.366529512140	1281.861104180017	44.094643349173	616.463222512328	762.723197343030	156.298924775315	376.553156864525	817.315374504420	111.848727815281	294.074630449886	922.490060540657	127.612720518392	309.440938085275	1005.114205969729	32.651632650842	279.081196839597	1063.730825288975	1082.400706658670	199.696633009163	1274.435032417836	927.328025010466	186.279469781592	993.097840630640	1103.644712516596	771.775512831434	1056.715596926644	849.423103187668	771.847860404067	
